<?xml version="1.0" encoding="utf-8"?>
<!-- Generator: Adobe Illustrator 24.0.3, SVG Export Plug-In . SVG Version: 6.00 Build 0)  -->
<svg version="1.1" id="Calque_1" xmlns="http://www.w3.org/2000/svg" xmlns:xlink="http://www.w3.org/1999/xlink" x="0px" y="0px"
	 viewBox="0 0 1440 278.8" style="enable-background:new 0 0 1440 278.8;" xml:space="preserve">
<style type="text/css">
	.st0{opacity:0.3;}
	.st1{fill-rule:evenodd;clip-rule:evenodd;fill:#85D9FD;}
	.st2{filter:url(#Adobe_OpacityMaskFilter);}
	.st3{fill-rule:evenodd;clip-rule:evenodd;fill:#FFFFFF;}
	.st4{mask:url(#d_1_);fill-rule:evenodd;clip-rule:evenodd;fill:#85D9FD;}
	.st5{filter:url(#Adobe_OpacityMaskFilter_1_);}
	.st6{mask:url(#f_1_);fill-rule:evenodd;clip-rule:evenodd;fill:#85D9FD;}
	.st7{filter:url(#Adobe_OpacityMaskFilter_2_);}
	.st8{mask:url(#h_1_);fill-rule:evenodd;clip-rule:evenodd;fill:#85D9FD;}
	.st9{filter:url(#Adobe_OpacityMaskFilter_3_);}
	.st10{mask:url(#j_1_);fill-rule:evenodd;clip-rule:evenodd;fill:#85D9FD;}
	.st11{filter:url(#Adobe_OpacityMaskFilter_4_);}
	.st12{mask:url(#l_1_);fill-rule:evenodd;clip-rule:evenodd;fill:#85D9FD;}
	.st13{filter:url(#Adobe_OpacityMaskFilter_5_);}
	.st14{mask:url(#n_1_);fill-rule:evenodd;clip-rule:evenodd;fill:#85D9FD;}
</style>
<g class="st0">
	<path class="st1" d="M68.5,79.6l68.5-39.5v79L68.5,79.6z M71,79.6l64.8,37.3V42.2L71,79.6z"/>
	<g transform="translate(140.062 5)">
		<defs>
			<filter id="Adobe_OpacityMaskFilter" filterUnits="userSpaceOnUse" x="-3" y="-5" width="68.5" height="79.6">
				<feColorMatrix  type="matrix" values="1 0 0 0 0  0 1 0 0 0  0 0 1 0 0  0 0 0 1 0"/>
			</filter>
		</defs>
		<mask maskUnits="userSpaceOnUse" x="-3" y="-5" width="68.5" height="79.6" id="d_1_">
			<g class="st2">
				<path id="c_1_" class="st3" d="M-3-5h68.5v79.6H-3V-5z"/>
			</g>
		</mask>
		<path class="st4" d="M-3,34.8L65.5-5v79.6L-3,34.8L-3,34.8z M-0.5,34.8l64.8,37.6V-2.9L-0.5,34.8L-0.5,34.8z"/>
	</g>
	<path class="st1" d="M273.5,198.6l69.8-40.1v80.2L273.5,198.6L273.5,198.6z M276,198.6l66.1,38v-75.9L276,198.6z M137.1,119.1
		l68.5-39.5v79C205.6,158.5,137.1,119.1,137.1,119.1z M139.5,119.1l64.8,37.3V81.7L139.5,119.1z M68.5,158.9l68.5-39.8v79.6
		L68.5,158.9z M71,158.9l64.8,37.6v-75.3L71,158.9z"/>
	<path class="st1" d="M0,119.4l137.1-79.3v158.5L0,119.4z M2.5,119.4l133.4,77.1V42.2L2.5,119.4L2.5,119.4z"/>
	<g transform="translate(208.592 5)">
		<defs>
			<filter id="Adobe_OpacityMaskFilter_1_" filterUnits="userSpaceOnUse" x="-3" y="-5" width="136.4" height="158.5">
				<feColorMatrix  type="matrix" values="1 0 0 0 0  0 1 0 0 0  0 0 1 0 0  0 0 0 1 0"/>
			</filter>
		</defs>
		<mask maskUnits="userSpaceOnUse" x="-3" y="-5" width="136.4" height="158.5" id="f_1_">
			<g class="st5">
				<path id="e_1_" class="st3" d="M-3-5h136.4v158.5H-3V-5z"/>
			</g>
		</mask>
		<path class="st6" d="M-3,74.3L133.4-5v158.5L-3,74.3z M-0.5,74.3l132.8,77.1V-2.9L-0.5,74.3L-0.5,74.3z"/>
	</g>
	<path class="st1" d="M137.7,198.3l135.8-79.3v158.5L137.7,198.3z M140.1,198.3l132.1,77.1V121.2L140.1,198.3z M343.3,158.5
		L480.3,79v159.2L343.3,158.5L343.3,158.5z M345.7,158.5L479.1,236V81.1L345.7,158.5L345.7,158.5z"/>
	<g>
		<path class="st1" d="M548.9,79.6l68.5-39.5v79L548.9,79.6z M551.3,79.6l64.8,37.3V42.2L551.3,79.6z"/>
		<g transform="translate(620.394 5)">
			<defs>
				<filter id="Adobe_OpacityMaskFilter_2_" filterUnits="userSpaceOnUse" x="-3" y="-5" width="68.5" height="79.6">
					<feColorMatrix  type="matrix" values="1 0 0 0 0  0 1 0 0 0  0 0 1 0 0  0 0 0 1 0"/>
				</filter>
			</defs>
			<mask maskUnits="userSpaceOnUse" x="-3" y="-5" width="68.5" height="79.6" id="h_1_">
				<g class="st7">
					<path id="g_1_" class="st3" d="M-3-5h68.5v79.6H-3V-5z"/>
				</g>
			</mask>
			<path class="st8" d="M-3,34.8L65.5-5v79.6L-3,34.8L-3,34.8z M-0.5,34.8l64.8,37.6V-2.9L-0.5,34.8L-0.5,34.8z"/>
		</g>
		<path class="st1" d="M753.8,198.6l69.8-40.1v80.2L753.8,198.6L753.8,198.6z M756.3,198.6l66.1,38v-75.9L756.3,198.6z M617.4,119.1
			l68.5-39.5v79L617.4,119.1L617.4,119.1z M619.9,119.1l64.8,37.3V81.7L619.9,119.1z M548.9,158.9l68.5-39.8v79.6L548.9,158.9z
			 M551.3,158.9l64.8,37.6v-75.3L551.3,158.9L551.3,158.9z"/>
		<path class="st1" d="M480.3,119.4l137.1-79.3v158.5L480.3,119.4L480.3,119.4z M482.8,119.4l133.4,77.1V42.2L482.8,119.4
			L482.8,119.4z"/>
		<g transform="translate(688.925 5)">
			<defs>
				<filter id="Adobe_OpacityMaskFilter_3_" filterUnits="userSpaceOnUse" x="-3" y="-5" width="136.4" height="158.5">
					<feColorMatrix  type="matrix" values="1 0 0 0 0  0 1 0 0 0  0 0 1 0 0  0 0 0 1 0"/>
				</filter>
			</defs>
			<mask maskUnits="userSpaceOnUse" x="-3" y="-5" width="136.4" height="158.5" id="j_1_">
				<g class="st9">
					<path id="i_1_" class="st3" d="M-3-5h136.4v158.5H-3V-5z"/>
				</g>
			</mask>
			<path class="st10" d="M-3,74.3L133.4-5v158.5L-3,74.3z M-0.5,74.3l132.8,77.1V-2.9L-0.5,74.3L-0.5,74.3z"/>
		</g>
		<path class="st1" d="M618,198.3l135.8-79.3v158.5L618,198.3z M620.5,198.3l132.1,77.1V121.2L620.5,198.3z M823.6,158.5L960.7,79
			v159.2L823.6,158.5L823.6,158.5z M826.1,158.5L959.4,236V81.1L826.1,158.5L826.1,158.5z"/>
	</g>
	<g>
		<path class="st1" d="M1028.2,79.6l68.5-39.5v79L1028.2,79.6z M1030.7,79.6l64.8,37.3V42.2L1030.7,79.6z"/>
		<g transform="translate(1099.729 5)">
			<defs>
				<filter id="Adobe_OpacityMaskFilter_4_" filterUnits="userSpaceOnUse" x="-3" y="-5" width="68.5" height="79.6">
					<feColorMatrix  type="matrix" values="1 0 0 0 0  0 1 0 0 0  0 0 1 0 0  0 0 0 1 0"/>
				</filter>
			</defs>
			<mask maskUnits="userSpaceOnUse" x="-3" y="-5" width="68.5" height="79.6" id="l_1_">
				<g class="st11">
					<path id="k_1_" class="st3" d="M-3-5h68.5v79.6H-3V-5z"/>
				</g>
			</mask>
			<path class="st12" d="M-3,34.8L65.5-5v79.6L-3,34.8L-3,34.8z M-0.5,34.8l64.8,37.6V-2.9L-0.5,34.8z"/>
		</g>
		<path class="st1" d="M1233.2,198.6l69.8-40.1v80.2L1233.2,198.6L1233.2,198.6z M1235.6,198.6l66.1,38v-75.9L1235.6,198.6z
			 M1096.7,119.1l68.5-39.5v79C1165.3,158.5,1096.7,119.1,1096.7,119.1z M1099.2,119.1l64.8,37.3V81.7L1099.2,119.1z M1028.2,158.9
			l68.5-39.8v79.6L1028.2,158.9z M1030.7,158.9l64.8,37.6v-75.3L1030.7,158.9z"/>
		<path class="st1" d="M959.7,119.4l137.1-79.3v158.5L959.7,119.4L959.7,119.4z M962.1,119.4l133.4,77.1V42.2L962.1,119.4z"/>
		<g transform="translate(1168.26 5)">
			<defs>
				<filter id="Adobe_OpacityMaskFilter_5_" filterUnits="userSpaceOnUse" x="-3" y="-5" width="136.4" height="158.5">
					<feColorMatrix  type="matrix" values="1 0 0 0 0  0 1 0 0 0  0 0 1 0 0  0 0 0 1 0"/>
				</filter>
			</defs>
			<mask maskUnits="userSpaceOnUse" x="-3" y="-5" width="136.4" height="158.5" id="n_1_">
				<g class="st13">
					<path id="m_1_" class="st3" d="M-3-5h136.4v158.5H-3V-5z"/>
				</g>
			</mask>
			<path class="st14" d="M-3,74.3L133.4-5v158.5L-3,74.3z M-0.5,74.3l132.8,77.1V-2.9L-0.5,74.3L-0.5,74.3z"/>
		</g>
		<path class="st1" d="M1097.3,198.3l135.8-79.3v158.5L1097.3,198.3L1097.3,198.3z M1099.8,198.3l132.1,77.1V121.2L1099.8,198.3z
			 M1302.9,158.5L1440,79v159.2L1302.9,158.5L1302.9,158.5z M1305.4,158.5l133.4,77.4V81.1L1305.4,158.5L1305.4,158.5z"/>
	</g>
</g>
</svg>
