<svg id="svg" version="1.1" xmlns="http://www.w3.org/2000/svg" xmlns:xlink="http://www.w3.org/1999/xlink" width="400" height="400" viewBox="0, 0, 400,400"><g id="svgg"><path id="path0" d="M187.478 0.255 C 187.381 0.352,185.974 0.516,184.351 0.619 C 180.625 0.857,177.800 1.094,177.800 1.169 C 177.800 1.201,176.810 1.306,175.600 1.402 C 173.525 1.567,172.622 1.689,169.500 2.222 C 168.785 2.344,167.390 2.538,166.400 2.654 C 165.410 2.769,164.330 2.967,164.000 3.095 C 163.670 3.222,163.162 3.287,162.870 3.239 C 162.579 3.191,162.092 3.358,161.788 3.610 C 161.484 3.862,161.047 3.953,160.818 3.811 C 160.588 3.669,160.175 3.696,159.900 3.870 C 159.625 4.045,159.130 4.204,158.800 4.225 C 157.868 4.283,155.067 4.836,154.400 5.095 C 154.070 5.222,153.646 5.292,153.458 5.249 C 153.270 5.207,152.893 5.357,152.621 5.582 C 152.349 5.808,151.513 6.072,150.763 6.169 C 150.013 6.267,149.400 6.373,149.400 6.406 C 149.400 6.440,149.040 6.529,148.600 6.605 C 147.905 6.725,147.182 6.911,144.000 7.788 C 143.670 7.879,142.466 8.305,141.324 8.734 C 140.182 9.163,139.158 9.425,139.049 9.316 C 138.941 9.207,138.459 9.393,137.980 9.729 C 137.500 10.065,136.877 10.251,136.595 10.143 C 136.312 10.034,135.962 10.138,135.817 10.373 C 135.672 10.608,135.124 10.800,134.600 10.800 C 134.076 10.800,133.536 10.980,133.400 11.200 C 133.264 11.420,132.803 11.600,132.376 11.600 C 131.949 11.600,131.600 11.780,131.600 12.000 C 131.600 12.220,131.137 12.400,130.571 12.400 C 130.006 12.400,129.271 12.672,128.939 13.004 C 128.607 13.336,128.179 13.511,127.988 13.392 C 127.796 13.274,126.958 13.542,126.126 13.989 C 125.293 14.435,124.307 14.800,123.934 14.800 C 123.562 14.800,122.994 15.063,122.673 15.384 C 122.352 15.705,121.635 16.051,121.080 16.151 C 120.524 16.252,119.649 16.568,119.135 16.853 C 118.621 17.138,118.110 17.394,118.000 17.420 C 117.315 17.587,116.122 18.232,115.668 18.681 C 115.375 18.971,114.970 19.105,114.768 18.980 C 114.565 18.855,114.400 18.943,114.400 19.176 C 114.400 19.409,114.265 19.566,114.100 19.524 C 113.643 19.409,108.267 21.969,107.975 22.440 C 107.835 22.667,107.468 22.903,107.160 22.964 C 105.879 23.219,102.800 24.804,102.800 25.209 C 102.800 25.450,102.620 25.536,102.400 25.400 C 102.180 25.264,102.000 25.343,102.000 25.576 C 102.000 25.809,101.659 26.000,101.243 26.000 C 100.826 26.000,100.378 26.281,100.246 26.625 C 100.114 26.969,99.824 27.139,99.603 27.002 C 99.381 26.865,99.200 26.954,99.200 27.200 C 99.200 27.446,99.020 27.536,98.800 27.400 C 98.580 27.264,98.400 27.330,98.400 27.547 C 98.400 27.765,97.680 28.260,96.800 28.648 C 95.920 29.036,95.200 29.499,95.200 29.677 C 95.200 29.855,95.065 29.969,94.900 29.930 C 94.448 29.825,92.400 30.885,92.400 31.225 C 92.400 31.595,89.513 33.379,89.089 33.272 C 88.918 33.228,88.674 33.463,88.547 33.794 C 88.420 34.125,88.154 34.295,87.955 34.172 C 87.757 34.050,87.487 34.230,87.355 34.572 C 87.224 34.915,86.974 35.107,86.800 35.000 C 86.626 34.893,86.381 35.074,86.254 35.402 C 86.128 35.731,85.749 36.000,85.413 36.000 C 85.076 36.000,84.800 36.180,84.800 36.400 C 84.800 36.620,84.530 36.800,84.200 36.800 C 83.870 36.800,83.600 36.944,83.600 37.120 C 83.600 37.295,82.885 37.880,82.011 38.420 C 81.137 38.959,80.417 39.535,80.411 39.700 C 80.405 39.865,80.124 40.000,79.787 40.000 C 79.451 40.000,79.071 40.270,78.945 40.600 C 78.818 40.930,78.503 41.200,78.246 41.200 C 77.988 41.200,77.517 41.560,77.200 42.000 C 76.883 42.440,76.453 42.800,76.245 42.800 C 75.863 42.800,75.079 43.460,73.514 45.100 C 73.042 45.595,72.408 46.000,72.104 46.000 C 71.801 46.000,71.664 46.180,71.800 46.400 C 71.936 46.620,71.856 46.800,71.623 46.800 C 70.552 46.800,49.781 66.952,49.153 68.600 C 49.069 68.820,48.409 69.519,47.687 70.153 C 46.964 70.788,46.451 71.385,46.547 71.480 C 46.642 71.575,46.129 72.292,45.407 73.073 C 43.263 75.391,42.800 75.979,42.800 76.386 C 42.800 76.598,42.440 76.965,42.000 77.200 C 41.560 77.435,41.200 77.858,41.200 78.139 C 41.200 78.420,40.396 79.539,39.413 80.625 C 38.431 81.711,37.617 82.780,37.606 83.000 C 37.594 83.220,36.958 84.118,36.192 84.996 C 35.427 85.873,34.800 86.818,34.800 87.096 C 34.800 87.373,34.609 87.600,34.376 87.600 C 34.143 87.600,34.064 87.780,34.200 88.000 C 34.336 88.220,34.257 88.400,34.024 88.400 C 33.791 88.400,33.600 88.670,33.600 89.000 C 33.600 89.330,33.420 89.600,33.200 89.600 C 32.980 89.600,32.800 89.851,32.800 90.157 C 32.800 90.464,32.519 90.822,32.175 90.954 C 31.831 91.086,31.661 91.376,31.798 91.597 C 31.935 91.819,31.861 92.000,31.634 92.000 C 31.274 92.000,29.863 94.197,29.817 94.829 C 29.808 94.954,29.483 95.374,29.096 95.761 C 28.709 96.148,28.495 96.630,28.620 96.832 C 28.745 97.035,28.627 97.200,28.357 97.200 C 28.087 97.200,27.984 97.317,28.127 97.460 C 28.270 97.604,28.075 97.977,27.694 98.290 C 27.262 98.644,27.227 98.749,27.600 98.568 C 27.930 98.407,27.705 98.809,27.100 99.460 C 26.495 100.111,26.000 100.927,26.000 101.273 C 26.000 101.619,25.732 102.124,25.404 102.396 C 25.077 102.668,24.891 103.023,24.991 103.185 C 25.091 103.347,24.829 103.847,24.410 104.297 C 23.991 104.747,23.757 105.224,23.891 105.357 C 24.024 105.491,23.893 105.600,23.600 105.600 C 23.307 105.600,23.187 105.720,23.334 105.868 C 23.481 106.015,23.318 106.449,22.971 106.832 C 22.624 107.216,22.302 107.789,22.255 108.105 C 22.209 108.421,21.898 109.112,21.564 109.640 C 21.231 110.168,20.351 112.040,19.609 113.800 C 18.867 115.560,18.021 117.284,17.730 117.631 C 17.438 117.979,17.200 118.564,17.200 118.931 C 17.200 119.299,17.001 119.600,16.757 119.600 C 16.514 119.600,16.422 119.879,16.553 120.221 C 16.708 120.626,16.630 120.742,16.327 120.555 C 16.022 120.366,15.948 120.486,16.110 120.909 C 16.246 121.264,16.009 121.989,15.578 122.538 C 15.150 123.081,14.800 123.903,14.800 124.363 C 14.800 124.823,14.609 125.200,14.376 125.200 C 14.143 125.200,14.056 125.368,14.183 125.572 C 14.309 125.777,14.227 126.060,14.000 126.200 C 13.773 126.340,13.691 126.623,13.817 126.828 C 13.944 127.032,13.887 127.200,13.690 127.200 C 13.494 127.200,13.319 127.425,13.301 127.700 C 13.283 127.975,12.713 129.524,12.035 131.141 C 11.356 132.759,10.800 134.394,10.800 134.775 C 10.800 135.155,10.665 135.602,10.500 135.767 C 10.335 135.932,10.178 136.232,10.150 136.433 C 10.123 136.635,10.064 136.845,10.019 136.900 C 9.975 136.955,9.863 137.315,9.769 137.700 C 9.462 138.971,9.328 139.388,8.859 140.534 C 8.603 141.157,8.489 141.820,8.604 142.006 C 8.719 142.192,8.627 142.460,8.400 142.600 C 8.173 142.740,8.091 143.023,8.217 143.228 C 8.344 143.432,8.295 143.600,8.109 143.600 C 7.923 143.600,7.727 144.173,7.673 144.873 C 7.620 145.574,7.379 146.384,7.139 146.673 C 6.899 146.963,6.805 147.200,6.931 147.200 C 7.056 147.200,6.906 147.807,6.595 148.549 C 6.285 149.291,6.129 149.996,6.248 150.115 C 6.367 150.234,6.279 150.679,6.051 151.104 C 5.563 152.017,5.190 153.606,4.959 155.764 C 4.867 156.625,4.612 157.544,4.393 157.808 C 4.174 158.072,3.946 158.989,3.887 159.844 C 3.828 160.700,3.639 161.625,3.466 161.900 C 3.294 162.175,3.269 162.588,3.411 162.818 C 3.553 163.047,3.494 163.452,3.281 163.718 C 2.907 164.182,2.369 167.290,2.225 169.812 C 2.187 170.479,2.027 171.232,1.870 171.487 C 1.712 171.742,1.590 172.456,1.598 173.075 C 1.614 174.343,1.316 177.800,1.191 177.800 C 1.080 177.800,0.870 180.330,0.659 184.200 C 0.564 185.960,0.442 187.400,0.390 187.400 C 0.164 187.400,0.126 212.238,0.351 212.600 C 0.488 212.820,0.640 214.170,0.688 215.600 C 0.784 218.431,1.075 222.200,1.196 222.200 C 1.307 222.200,1.633 225.628,1.634 226.800 C 1.634 227.350,1.741 228.070,1.871 228.400 C 2.001 228.730,2.147 229.540,2.196 230.200 C 2.331 232.041,2.824 235.308,3.102 236.200 C 3.475 237.399,3.605 238.042,3.829 239.800 C 3.941 240.680,4.237 242.030,4.486 242.800 C 4.735 243.570,4.981 244.560,5.033 245.000 C 5.135 245.859,5.499 247.400,5.600 247.400 C 5.677 247.400,6.010 248.745,6.194 249.800 C 6.271 250.240,6.362 250.600,6.397 250.600 C 6.491 250.600,6.734 251.608,7.024 253.200 C 7.164 253.970,7.448 254.915,7.654 255.300 C 7.860 255.685,7.925 256.000,7.800 256.000 C 7.675 256.000,7.791 256.405,8.058 256.900 C 8.326 257.395,8.602 258.306,8.672 258.925 C 8.742 259.544,9.021 260.444,9.292 260.925 C 9.563 261.406,9.818 262.070,9.859 262.400 C 9.949 263.118,10.682 265.271,11.494 267.200 C 11.818 267.970,12.149 268.937,12.228 269.350 C 12.308 269.762,12.657 270.532,13.003 271.061 C 13.350 271.590,13.535 272.182,13.414 272.377 C 13.294 272.572,13.384 272.795,13.615 272.872 C 13.846 272.949,14.066 273.414,14.103 273.906 C 14.140 274.398,14.312 274.800,14.485 274.800 C 14.658 274.800,14.800 275.177,14.800 275.637 C 14.800 276.097,15.150 276.919,15.578 277.462 C 16.009 278.011,16.246 278.736,16.110 279.091 C 15.948 279.514,16.022 279.634,16.327 279.445 C 16.630 279.258,16.708 279.374,16.553 279.779 C 16.422 280.121,16.514 280.400,16.757 280.400 C 17.001 280.400,17.200 280.738,17.200 281.151 C 17.200 281.564,17.478 282.133,17.818 282.415 C 18.158 282.697,18.346 283.164,18.236 283.451 C 18.125 283.739,18.225 284.092,18.458 284.236 C 18.930 284.527,20.191 287.230,20.074 287.700 C 20.033 287.865,20.166 288.000,20.368 288.000 C 20.571 288.000,20.852 288.528,20.994 289.172 C 21.136 289.817,21.510 290.559,21.826 290.821 C 22.142 291.083,22.400 291.614,22.400 292.000 C 22.400 292.386,22.668 292.924,22.996 293.196 C 23.323 293.468,23.507 293.827,23.404 293.993 C 23.301 294.160,23.652 294.802,24.184 295.421 C 24.716 296.040,25.131 296.648,25.106 296.773 C 25.007 297.267,26.207 299.463,27.175 300.562 C 27.739 301.201,27.930 301.593,27.600 301.432 C 27.270 301.272,27.327 301.408,27.727 301.734 C 28.126 302.060,28.441 302.434,28.427 302.564 C 28.340 303.334,28.487 303.650,29.275 304.384 C 29.757 304.833,30.025 305.200,29.870 305.200 C 29.593 305.200,31.477 308.415,31.981 308.800 C 32.125 308.910,32.673 309.720,33.200 310.600 C 33.727 311.480,34.347 312.328,34.579 312.485 C 34.810 312.642,35.016 312.912,35.035 313.085 C 35.118 313.847,35.711 314.778,35.999 314.600 C 36.173 314.493,36.427 314.854,36.565 315.403 C 36.703 315.951,36.992 316.400,37.208 316.400 C 37.423 316.400,37.600 316.681,37.600 317.024 C 37.600 317.367,37.780 317.536,38.000 317.400 C 38.220 317.264,38.400 317.414,38.400 317.732 C 38.400 318.051,39.026 319.007,39.791 319.856 C 40.556 320.705,41.186 321.655,41.191 321.967 C 41.196 322.278,41.319 322.414,41.464 322.269 C 41.716 322.017,42.991 323.511,42.997 324.066 C 42.999 324.213,43.433 324.708,43.961 325.166 C 44.490 325.625,44.765 326.000,44.572 326.000 C 44.380 326.000,44.622 326.280,45.111 326.623 C 45.600 326.965,46.000 327.468,46.000 327.739 C 46.000 328.011,46.726 328.901,47.614 329.716 C 48.501 330.532,49.095 331.200,48.934 331.200 C 48.773 331.200,49.475 332.010,50.493 333.000 C 51.512 333.990,52.270 334.800,52.179 334.800 C 52.087 334.800,55.115 337.871,58.906 341.624 C 67.151 349.786,68.418 351.000,68.688 351.000 C 68.802 351.000,69.638 351.723,70.547 352.606 C 71.456 353.489,72.722 354.569,73.361 355.006 C 73.999 355.443,74.854 356.115,75.261 356.500 C 75.667 356.885,76.000 357.101,76.000 356.979 C 76.000 356.858,76.423 357.215,76.940 357.773 C 77.457 358.331,77.982 358.684,78.107 358.559 C 78.233 358.434,78.536 358.707,78.782 359.166 C 79.027 359.625,79.409 360.000,79.631 360.000 C 79.853 360.000,80.251 360.179,80.517 360.397 C 83.432 362.793,84.551 363.600,84.963 363.600 C 85.231 363.600,85.962 364.134,86.586 364.786 C 87.211 365.438,87.856 365.889,88.019 365.788 C 88.183 365.687,88.419 365.874,88.546 366.202 C 88.672 366.531,89.051 366.800,89.387 366.800 C 89.724 366.800,90.000 367.010,90.000 367.267 C 90.000 367.523,90.116 367.617,90.258 367.476 C 90.399 367.334,91.130 367.758,91.882 368.418 C 92.633 369.078,93.398 369.525,93.582 369.411 C 93.766 369.298,94.024 369.485,94.155 369.828 C 94.287 370.170,94.557 370.350,94.755 370.228 C 94.954 370.105,95.219 370.274,95.346 370.602 C 95.472 370.931,95.907 371.200,96.312 371.200 C 96.717 371.200,97.443 371.567,97.925 372.016 C 98.406 372.464,98.800 372.722,98.800 372.588 C 98.800 372.455,99.323 372.718,99.962 373.173 C 100.601 373.628,101.238 374.000,101.378 374.000 C 101.519 374.000,101.991 374.333,102.428 374.740 C 102.865 375.147,103.937 375.694,104.811 375.956 C 105.685 376.218,106.400 376.616,106.400 376.840 C 106.400 377.064,106.565 377.145,106.768 377.020 C 106.970 376.895,107.380 377.037,107.680 377.337 C 108.347 378.004,115.495 381.605,116.599 381.829 C 117.038 381.919,117.456 382.168,117.528 382.383 C 117.600 382.599,118.275 382.890,119.029 383.032 C 119.783 383.173,120.400 383.449,120.400 383.645 C 120.400 383.840,120.749 384.000,121.176 384.000 C 121.603 384.000,122.066 384.183,122.204 384.407 C 122.342 384.630,122.623 384.709,122.828 384.583 C 123.032 384.456,123.200 384.543,123.200 384.776 C 123.200 385.009,123.335 385.169,123.500 385.130 C 123.665 385.092,124.250 385.257,124.800 385.498 C 126.603 386.286,127.392 386.527,127.900 386.446 C 128.175 386.401,128.400 386.563,128.400 386.806 C 128.400 387.049,128.580 387.136,128.800 387.000 C 129.020 386.864,129.200 386.905,129.200 387.091 C 129.200 387.277,129.534 387.455,129.942 387.486 C 130.350 387.516,131.475 387.885,132.442 388.305 C 134.608 389.245,136.803 390.035,137.600 390.161 C 137.930 390.214,138.501 390.393,138.869 390.559 C 139.237 390.725,139.777 390.911,140.069 390.970 C 140.361 391.030,140.901 391.210,141.269 391.370 C 141.637 391.531,142.177 391.698,142.469 391.742 C 142.761 391.786,143.237 391.970,143.527 392.151 C 143.816 392.332,144.160 392.374,144.290 392.244 C 144.420 392.113,144.751 392.193,145.025 392.420 C 145.299 392.648,146.125 392.903,146.861 392.988 C 147.598 393.073,149.190 393.435,150.400 393.793 C 151.610 394.152,152.870 394.500,153.200 394.567 C 153.530 394.634,154.070 394.789,154.400 394.911 C 154.730 395.033,155.270 395.140,155.600 395.148 C 155.930 395.156,157.190 395.443,158.400 395.785 C 159.610 396.127,161.320 396.480,162.200 396.570 C 163.080 396.659,163.800 396.767,163.800 396.809 C 163.800 396.851,164.340 396.933,165.000 396.991 C 165.660 397.049,166.200 397.133,166.200 397.179 C 166.200 397.419,170.863 398.080,176.000 398.568 C 176.990 398.662,177.890 398.780,178.000 398.831 C 178.110 398.882,178.920 398.976,179.800 399.040 C 180.680 399.104,182.840 399.297,184.600 399.470 C 188.275 399.830,211.022 399.812,215.800 399.446 C 219.105 399.192,220.654 399.025,223.400 398.629 C 224.280 398.502,225.900 398.314,227.000 398.211 C 228.100 398.107,229.450 397.925,230.000 397.806 C 230.550 397.687,231.871 397.502,232.936 397.396 C 234.001 397.290,235.011 397.117,235.180 397.012 C 235.350 396.907,236.099 396.735,236.845 396.630 C 237.590 396.525,238.650 396.334,239.200 396.206 C 239.750 396.077,240.798 395.888,241.529 395.785 C 242.259 395.682,243.181 395.424,243.576 395.213 C 243.971 395.001,244.404 394.937,244.538 395.071 C 244.671 395.205,245.055 395.086,245.390 394.808 C 245.726 394.530,246.000 394.403,246.000 394.526 C 246.000 394.648,247.305 394.380,248.900 393.930 C 250.495 393.479,252.160 393.064,252.600 393.006 C 253.040 392.949,253.400 392.867,253.400 392.823 C 253.400 392.780,253.850 392.682,254.400 392.606 C 254.950 392.529,255.940 392.237,256.600 391.955 C 257.260 391.674,257.980 391.416,258.200 391.383 C 258.420 391.350,258.870 391.219,259.200 391.092 C 260.526 390.581,263.024 389.810,263.400 389.795 C 263.620 389.786,264.025 389.638,264.300 389.466 C 264.575 389.294,264.800 389.264,264.800 389.399 C 264.800 389.535,265.200 389.365,265.689 389.023 C 266.178 388.680,266.988 388.400,267.489 388.400 C 267.990 388.400,268.400 388.220,268.400 388.000 C 268.400 387.780,268.839 387.600,269.376 387.600 C 269.913 387.600,270.464 387.420,270.600 387.200 C 270.736 386.980,271.207 386.800,271.647 386.800 C 272.086 386.800,273.247 386.353,274.226 385.806 C 275.206 385.259,276.092 384.802,276.196 384.790 C 276.301 384.777,276.973 384.521,277.689 384.219 C 278.406 383.918,279.129 383.756,279.296 383.859 C 279.463 383.963,279.600 383.878,279.600 383.672 C 279.600 383.318,281.245 382.484,282.451 382.226 C 283.864 381.924,285.600 381.080,285.600 380.694 C 285.600 380.459,285.715 380.381,285.855 380.522 C 285.995 380.662,287.480 380.032,289.155 379.122 C 290.830 378.212,292.560 377.289,293.000 377.072 C 293.440 376.854,294.070 376.522,294.400 376.335 C 294.730 376.148,295.450 375.774,296.000 375.505 C 296.550 375.236,297.132 374.833,297.294 374.608 C 297.456 374.384,297.591 374.341,297.594 374.512 C 297.597 374.684,298.593 374.189,299.808 373.412 C 301.022 372.636,302.192 372.000,302.408 372.000 C 302.623 372.000,302.800 371.820,302.800 371.600 C 302.800 371.380,302.993 371.200,303.229 371.200 C 303.464 371.200,303.929 370.928,304.261 370.596 C 304.593 370.264,305.011 370.083,305.190 370.194 C 305.370 370.305,305.604 370.171,305.711 369.898 C 305.819 369.624,306.924 368.872,308.168 368.226 C 309.412 367.580,311.098 366.479,311.915 365.780 C 312.732 365.081,313.521 364.529,313.668 364.554 C 313.815 364.579,314.400 364.196,314.968 363.703 C 315.536 363.209,316.006 362.939,316.013 363.103 C 316.021 363.266,316.381 362.975,316.813 362.456 C 317.246 361.936,317.600 361.661,317.600 361.845 C 317.600 362.028,317.880 361.778,318.223 361.289 C 318.565 360.800,319.078 360.400,319.363 360.400 C 319.648 360.400,320.432 359.874,321.105 359.231 C 321.778 358.588,322.420 358.153,322.532 358.265 C 322.644 358.377,322.939 358.088,323.188 357.623 C 323.437 357.158,323.766 356.849,323.920 356.936 C 324.074 357.023,324.595 356.685,325.078 356.183 L 325.957 355.272 313.534 339.936 C 300.794 324.208,300.587 324.001,299.168 325.637 C 298.804 326.057,298.368 326.400,298.199 326.400 C 298.030 326.400,297.483 326.805,296.984 327.300 C 295.743 328.530,295.123 328.994,294.300 329.308 C 293.915 329.455,293.600 329.761,293.600 329.987 C 293.600 330.214,293.330 330.400,293.000 330.400 C 292.670 330.400,292.400 330.591,292.400 330.824 C 292.400 331.057,292.220 331.136,292.000 331.000 C 291.780 330.864,291.600 330.919,291.600 331.123 C 291.600 331.509,288.598 333.636,288.147 333.570 C 288.005 333.549,287.779 333.691,287.645 333.886 C 287.381 334.268,283.325 336.800,282.977 336.800 C 282.861 336.800,282.387 337.154,281.923 337.586 C 281.459 338.019,280.947 338.291,280.785 338.191 C 280.623 338.091,280.268 338.277,279.996 338.604 C 279.724 338.932,279.267 339.200,278.980 339.200 C 278.692 339.200,278.181 339.476,277.843 339.814 C 277.505 340.152,276.052 340.979,274.615 341.652 C 273.177 342.325,271.898 343.041,271.773 343.244 C 271.647 343.447,271.377 343.509,271.172 343.383 C 270.968 343.256,270.800 343.354,270.800 343.600 C 270.800 343.846,270.635 343.945,270.434 343.821 C 270.233 343.697,270.008 343.731,269.934 343.898 C 269.779 344.247,266.291 346.000,265.750 346.000 C 265.551 346.000,264.716 346.360,263.894 346.801 C 263.072 347.241,262.400 347.497,262.400 347.368 C 262.400 347.240,261.725 347.552,260.900 348.062 C 260.075 348.572,259.358 348.954,259.307 348.912 C 259.256 348.869,258.546 349.114,257.729 349.455 C 256.912 349.797,255.964 350.132,255.622 350.200 C 255.280 350.269,254.190 350.625,253.200 350.992 C 252.210 351.359,251.175 351.676,250.900 351.696 C 250.625 351.717,250.400 351.913,250.400 352.133 C 250.400 352.353,250.290 352.424,250.156 352.290 C 250.022 352.156,249.009 352.402,247.904 352.838 C 246.800 353.273,245.801 353.534,245.685 353.418 C 245.569 353.302,245.265 353.380,245.011 353.591 C 244.470 354.039,237.597 355.816,234.919 356.199 C 234.435 356.269,233.388 356.540,232.592 356.803 C 231.797 357.065,231.040 357.173,230.910 357.043 C 230.780 356.913,230.434 357.006,230.142 357.248 C 229.849 357.491,229.355 357.592,229.044 357.472 C 228.733 357.353,228.356 357.378,228.206 357.528 C 228.056 357.677,227.454 357.833,226.867 357.874 C 226.280 357.915,225.260 358.050,224.600 358.176 C 222.407 358.592,219.960 358.881,213.600 359.475 C 209.713 359.837,190.287 359.837,186.400 359.475 C 180.040 358.881,177.593 358.592,175.400 358.176 C 174.740 358.050,173.660 357.894,173.000 357.827 C 172.340 357.761,171.800 357.668,171.800 357.620 C 171.800 357.517,170.659 357.295,168.995 357.074 C 168.332 356.986,167.369 356.781,166.855 356.617 C 166.341 356.454,165.533 356.265,165.060 356.197 C 162.388 355.812,155.526 354.037,154.989 353.591 C 154.735 353.380,154.431 353.302,154.315 353.418 C 154.199 353.534,153.200 353.273,152.096 352.838 C 150.991 352.402,149.978 352.156,149.844 352.290 C 149.710 352.424,149.600 352.293,149.600 352.000 C 149.600 351.707,149.487 351.579,149.349 351.717 C 149.211 351.855,148.581 351.701,147.949 351.374 C 147.317 351.047,146.800 350.880,146.800 351.004 C 146.800 351.127,146.428 351.029,145.974 350.786 C 145.520 350.543,144.835 350.284,144.452 350.210 C 144.069 350.136,143.046 349.779,142.178 349.417 C 141.310 349.054,140.510 348.754,140.400 348.749 C 140.290 348.745,139.615 348.380,138.900 347.938 C 138.185 347.496,137.600 347.260,137.600 347.413 C 137.600 347.567,137.195 347.429,136.700 347.107 C 136.205 346.785,135.080 346.286,134.200 345.999 C 132.195 345.345,129.494 343.978,129.106 343.422 C 128.944 343.190,128.809 343.125,128.806 343.278 C 128.803 343.431,127.703 342.936,126.362 342.178 C 125.020 341.420,123.788 340.800,123.623 340.800 C 123.458 340.800,122.907 340.440,122.400 340.000 C 121.893 339.560,121.257 339.200,120.988 339.200 C 120.718 339.200,120.276 338.932,120.004 338.604 C 119.732 338.277,119.377 338.091,119.215 338.191 C 119.053 338.291,118.541 338.019,118.077 337.586 C 117.613 337.154,117.139 336.800,117.023 336.800 C 116.675 336.800,112.619 334.268,112.355 333.886 C 112.221 333.691,111.995 333.549,111.853 333.570 C 111.402 333.636,108.400 331.509,108.400 331.123 C 108.400 330.919,108.220 330.864,108.000 331.000 C 107.780 331.136,107.600 331.057,107.600 330.824 C 107.600 330.591,107.373 330.400,107.096 330.400 C 106.819 330.400,106.363 330.033,106.083 329.584 C 105.803 329.136,105.431 328.857,105.256 328.966 C 105.080 329.074,104.321 328.591,103.569 327.892 C 102.816 327.194,102.110 326.614,102.000 326.604 C 101.775 326.584,100.748 325.739,98.110 323.400 C 97.117 322.520,95.960 321.611,95.540 321.379 C 95.119 321.148,94.901 320.833,95.054 320.679 C 95.208 320.526,95.127 320.400,94.875 320.400 C 94.623 320.400,93.513 319.487,92.408 318.370 C 91.304 317.254,90.400 316.467,90.400 316.622 C 90.400 317.089,83.401 309.938,83.382 309.451 C 83.372 309.203,83.147 309.045,82.882 309.100 C 82.617 309.155,82.400 309.016,82.400 308.790 C 82.400 308.565,81.590 307.631,80.600 306.714 C 79.610 305.798,78.800 304.894,78.800 304.705 C 78.800 304.516,78.324 303.920,77.742 303.381 C 77.159 302.841,76.825 302.400,76.998 302.400 C 77.170 302.400,76.702 301.782,75.956 301.026 C 73.625 298.665,73.200 298.147,73.200 297.666 C 73.200 297.410,73.020 297.200,72.800 297.200 C 72.580 297.200,72.400 296.973,72.400 296.696 C 72.400 296.419,72.033 295.963,71.584 295.683 C 71.136 295.403,70.873 295.006,71.000 294.800 C 71.127 294.594,70.864 294.197,70.416 293.917 C 69.967 293.637,69.600 293.181,69.600 292.904 C 69.600 292.627,69.409 292.400,69.176 292.400 C 68.943 292.400,68.852 292.239,68.974 292.042 C 69.096 291.845,68.915 291.576,68.572 291.445 C 68.230 291.313,68.062 291.023,68.200 290.800 C 68.338 290.577,68.186 290.293,67.862 290.168 C 67.538 290.044,67.055 289.415,66.788 288.771 C 66.521 288.127,66.134 287.600,65.928 287.600 C 65.722 287.600,65.647 287.447,65.763 287.261 C 65.878 287.074,65.654 286.579,65.266 286.161 C 64.877 285.742,64.439 285.085,64.292 284.700 C 64.145 284.315,63.839 284.000,63.613 284.000 C 63.386 284.000,63.200 283.640,63.200 283.200 C 63.200 282.760,63.050 282.400,62.868 282.400 C 62.685 282.400,62.288 281.905,61.985 281.300 C 61.682 280.695,61.188 279.901,60.887 279.535 C 60.586 279.169,60.299 278.593,60.249 278.254 C 60.199 277.916,59.808 277.251,59.379 276.777 C 58.951 276.304,58.621 275.800,58.646 275.658 C 58.716 275.261,57.859 273.431,57.474 273.155 C 57.286 273.021,57.114 272.751,57.093 272.555 C 57.005 271.740,56.201 270.000,55.912 270.000 C 55.741 270.000,55.600 269.842,55.600 269.648 C 55.600 269.455,55.112 268.240,54.516 266.948 C 53.920 265.657,53.396 264.375,53.351 264.099 C 53.264 263.556,51.880 260.438,50.980 258.756 C 50.672 258.182,50.536 257.597,50.677 257.456 C 50.818 257.315,50.715 257.200,50.449 257.200 C 50.183 257.200,50.000 256.975,50.044 256.700 C 50.087 256.425,49.825 255.531,49.461 254.713 C 49.098 253.895,48.800 252.961,48.800 252.636 C 48.800 252.312,48.608 251.928,48.373 251.783 C 48.138 251.638,48.031 251.295,48.136 251.022 C 48.241 250.748,47.984 249.756,47.564 248.818 C 47.144 247.880,46.800 246.763,46.800 246.336 C 46.800 245.910,46.517 245.012,46.171 244.343 C 45.824 243.673,45.638 243.029,45.756 242.910 C 45.875 242.792,45.807 242.386,45.605 242.009 C 45.403 241.632,45.142 240.891,45.024 240.362 C 44.394 237.538,44.039 236.081,43.716 235.000 C 43.519 234.340,43.379 233.530,43.404 233.200 C 43.429 232.870,43.283 232.377,43.080 232.105 C 42.877 231.833,42.813 231.344,42.938 231.018 C 43.063 230.692,42.981 230.312,42.755 230.172 C 42.530 230.033,42.448 229.651,42.574 229.323 C 42.700 228.996,42.667 228.519,42.502 228.264 C 42.214 227.820,42.132 227.347,41.855 224.569 C 41.788 223.892,41.609 223.139,41.458 222.894 C 41.307 222.650,41.197 221.944,41.213 221.325 C 41.229 220.706,41.139 219.390,41.012 218.400 C 40.399 213.601,40.275 210.549,40.265 200.000 C 40.256 189.591,40.384 186.453,41.008 181.800 C 41.126 180.920,41.222 179.590,41.222 178.845 C 41.221 178.100,41.336 177.304,41.477 177.076 C 41.618 176.848,41.788 176.108,41.855 175.431 C 42.132 172.653,42.214 172.180,42.502 171.736 C 42.667 171.481,42.700 171.004,42.574 170.677 C 42.448 170.349,42.530 169.967,42.755 169.828 C 42.981 169.688,43.067 169.319,42.947 169.006 C 42.827 168.694,42.873 168.205,43.049 167.920 C 43.225 167.635,43.408 166.952,43.455 166.401 C 43.501 165.850,43.836 164.320,44.197 163.000 C 44.559 161.680,44.904 160.420,44.963 160.200 C 45.023 159.980,45.214 159.080,45.388 158.200 C 45.562 157.320,45.883 156.375,46.101 156.100 C 46.319 155.825,46.364 155.600,46.200 155.600 C 46.036 155.600,46.130 155.326,46.408 154.990 C 46.686 154.655,46.816 154.283,46.696 154.163 C 46.576 154.043,46.911 152.879,47.441 151.577 C 47.970 150.274,48.374 149.072,48.338 148.904 C 48.302 148.737,48.392 148.285,48.536 147.900 C 48.681 147.515,48.919 146.885,49.065 146.500 C 49.211 146.115,49.369 145.665,49.415 145.500 C 49.462 145.335,49.536 145.155,49.581 145.100 C 49.625 145.045,49.726 144.651,49.806 144.225 C 49.886 143.799,50.305 142.719,50.738 141.825 C 51.571 140.107,52.091 138.703,51.992 138.445 C 51.959 138.359,52.136 138.163,52.386 138.009 C 52.636 137.854,52.869 137.339,52.905 136.864 C 52.941 136.389,53.105 136.000,53.270 136.000 C 53.434 136.000,53.775 135.237,54.026 134.304 C 54.277 133.371,54.819 132.135,55.230 131.559 C 55.640 130.982,55.862 130.395,55.722 130.255 C 55.581 130.115,55.677 130.000,55.933 130.000 C 56.190 130.000,56.400 129.662,56.400 129.249 C 56.400 128.836,56.674 128.270,57.010 127.992 C 57.345 127.714,57.539 127.405,57.440 127.307 C 57.342 127.208,57.722 126.289,58.284 125.264 C 58.847 124.239,59.509 122.996,59.754 122.503 C 59.999 122.010,60.346 121.605,60.524 121.603 C 60.702 121.601,60.751 121.444,60.633 121.253 C 60.515 121.063,60.770 120.589,61.200 120.200 C 61.630 119.811,61.897 119.358,61.795 119.192 C 61.693 119.026,61.877 118.668,62.204 118.396 C 62.532 118.124,62.800 117.667,62.800 117.380 C 62.800 117.092,63.114 116.543,63.497 116.160 C 64.209 115.448,64.773 114.578,65.676 112.800 C 65.955 112.250,66.287 111.710,66.413 111.600 C 66.539 111.490,67.052 110.725,67.554 109.900 C 68.055 109.075,68.618 108.400,68.806 108.400 C 68.993 108.400,69.274 107.995,69.430 107.500 C 69.587 107.005,70.016 106.330,70.385 106.000 C 70.754 105.670,71.172 105.085,71.315 104.700 C 71.458 104.315,71.761 104.000,71.987 104.000 C 72.214 104.000,72.400 103.730,72.400 103.400 C 72.400 103.070,72.580 102.800,72.800 102.800 C 73.020 102.800,73.200 102.536,73.200 102.214 C 73.200 101.892,73.560 101.435,74.000 101.200 C 74.440 100.965,74.800 100.569,74.800 100.322 C 74.800 100.074,75.372 99.360,76.072 98.736 C 76.772 98.111,77.195 97.600,77.014 97.600 C 76.832 97.600,77.159 97.159,77.742 96.619 C 78.324 96.080,78.800 95.484,78.800 95.295 C 78.800 95.106,79.610 94.202,80.600 93.286 C 81.590 92.369,82.400 91.425,82.400 91.186 C 82.400 90.948,82.580 90.864,82.800 91.000 C 83.020 91.136,83.200 91.039,83.200 90.784 C 83.200 90.530,84.820 88.708,86.800 86.735 C 88.780 84.763,90.400 83.248,90.400 83.369 C 90.400 83.490,91.265 82.737,92.322 81.695 C 94.278 79.767,96.106 78.195,98.479 76.401 C 99.205 75.852,100.277 74.907,100.860 74.301 C 101.444 73.696,102.037 73.200,102.178 73.200 C 102.319 73.200,102.920 72.750,103.513 72.200 C 104.107 71.650,104.817 71.200,105.093 71.200 C 105.368 71.200,105.818 70.840,106.093 70.400 C 106.368 69.960,106.787 69.600,107.024 69.600 C 107.262 69.600,108.059 69.061,108.796 68.403 C 109.534 67.745,110.646 66.981,111.268 66.706 C 111.891 66.430,112.400 66.058,112.400 65.879 C 112.400 65.699,112.580 65.664,112.800 65.800 C 113.020 65.936,113.200 65.857,113.200 65.624 C 113.200 65.391,113.470 65.200,113.800 65.200 C 114.130 65.200,114.400 65.020,114.400 64.800 C 114.400 64.580,114.651 64.400,114.957 64.400 C 115.264 64.400,115.602 64.175,115.709 63.900 C 115.816 63.625,117.230 62.715,118.852 61.878 C 120.473 61.041,122.153 60.141,122.585 59.878 C 125.448 58.134,126.431 57.600,126.774 57.600 C 126.989 57.600,127.828 57.150,128.638 56.600 C 129.449 56.050,130.447 55.600,130.856 55.600 C 131.265 55.600,131.600 55.434,131.600 55.231 C 131.600 55.028,132.275 54.645,133.100 54.379 C 133.925 54.113,134.825 53.717,135.100 53.499 C 135.375 53.281,135.603 53.259,135.606 53.451 C 135.609 53.643,135.748 53.586,135.915 53.324 C 136.081 53.063,136.724 52.757,137.343 52.645 C 137.963 52.532,138.679 52.276,138.935 52.076 C 139.590 51.562,146.734 48.907,148.300 48.595 C 149.015 48.453,149.600 48.141,149.600 47.902 C 149.600 47.662,149.701 47.567,149.824 47.690 C 149.947 47.813,150.963 47.579,152.083 47.170 C 153.202 46.761,154.256 46.511,154.425 46.615 C 154.594 46.720,154.792 46.635,154.866 46.427 C 154.940 46.219,155.450 45.989,156.000 45.914 C 156.550 45.840,157.209 45.649,157.464 45.489 C 157.719 45.328,158.214 45.307,158.564 45.441 C 158.940 45.586,159.200 45.477,159.200 45.176 C 159.200 44.896,159.309 44.775,159.441 44.908 C 159.574 45.040,160.123 44.981,160.662 44.777 C 161.629 44.409,163.367 44.022,165.081 43.792 C 165.565 43.728,166.612 43.460,167.408 43.197 C 168.203 42.935,168.960 42.827,169.090 42.957 C 169.220 43.087,169.566 42.994,169.858 42.752 C 170.151 42.509,170.656 42.413,170.982 42.538 C 171.308 42.663,171.682 42.591,171.813 42.378 C 171.945 42.165,172.536 42.009,173.126 42.031 C 173.717 42.052,174.740 41.953,175.400 41.809 C 176.060 41.665,177.410 41.454,178.400 41.341 C 179.390 41.227,180.830 41.061,181.600 40.971 C 186.403 40.410,189.775 40.278,199.600 40.266 C 209.374 40.254,213.637 40.414,218.400 40.971 C 219.170 41.061,220.852 41.233,222.138 41.352 C 223.424 41.472,224.864 41.700,225.338 41.860 C 225.812 42.019,226.588 42.105,227.062 42.051 C 227.536 41.997,228.037 42.136,228.175 42.359 C 228.313 42.582,228.692 42.663,229.018 42.538 C 229.344 42.413,229.849 42.509,230.142 42.752 C 230.434 42.994,230.780 43.087,230.910 42.957 C 231.040 42.827,231.797 42.935,232.592 43.197 C 233.388 43.460,234.435 43.729,234.919 43.795 C 235.404 43.862,236.790 44.149,238.000 44.435 C 239.210 44.720,240.335 44.919,240.500 44.877 C 240.665 44.834,240.800 44.974,240.800 45.187 C 240.800 45.401,241.061 45.475,241.381 45.352 C 241.700 45.229,242.195 45.276,242.481 45.454 C 242.766 45.633,243.450 45.840,244.000 45.914 C 244.550 45.989,245.060 46.219,245.134 46.427 C 245.208 46.635,245.417 46.713,245.598 46.601 C 245.779 46.489,246.770 46.759,247.800 47.200 C 248.830 47.641,249.836 47.901,250.036 47.778 C 250.236 47.654,250.400 47.729,250.400 47.945 C 250.400 48.160,250.985 48.457,251.700 48.605 C 253.303 48.935,255.686 49.722,257.800 50.617 C 261.075 52.005,261.407 52.128,261.700 52.065 C 261.865 52.029,262.000 52.180,262.000 52.400 C 262.000 52.620,262.324 52.800,262.720 52.800 C 263.116 52.800,263.656 53.016,263.920 53.280 C 264.184 53.544,264.400 53.612,264.400 53.431 C 264.400 53.250,264.625 53.281,264.900 53.499 C 265.175 53.717,266.075 54.113,266.900 54.379 C 267.725 54.645,268.400 55.000,268.400 55.168 C 268.400 55.336,269.099 55.683,269.953 55.939 C 270.806 56.194,271.728 56.673,272.002 57.002 C 272.275 57.331,272.755 57.600,273.070 57.600 C 273.385 57.600,274.305 58.050,275.114 58.600 C 275.923 59.150,276.799 59.600,277.060 59.600 C 277.320 59.600,277.593 59.745,277.667 59.921 C 277.740 60.098,279.013 60.848,280.495 61.587 C 281.978 62.327,283.545 63.262,283.979 63.666 C 284.412 64.070,284.862 64.400,284.979 64.400 C 285.095 64.400,285.559 64.715,286.008 65.100 C 286.458 65.485,286.959 65.800,287.122 65.800 C 287.680 65.800,291.600 68.483,291.600 68.865 C 291.600 69.075,291.780 69.136,292.000 69.000 C 292.220 68.864,292.400 68.943,292.400 69.176 C 292.400 69.409,292.630 69.600,292.912 69.600 C 293.193 69.600,293.676 69.950,293.985 70.379 C 294.293 70.807,294.662 71.085,294.804 70.997 C 294.946 70.909,295.679 71.409,296.431 72.107 C 297.184 72.805,297.940 73.335,298.111 73.285 C 298.282 73.234,298.529 73.471,298.660 73.811 C 298.790 74.151,299.391 74.685,299.995 74.998 L 301.094 75.566 313.523 60.174 L 325.953 44.781 325.076 43.865 C 324.594 43.361,324.071 43.012,323.913 43.090 C 323.755 43.167,323.397 42.864,323.117 42.416 C 322.837 41.967,322.426 41.597,322.204 41.593 C 321.982 41.589,321.376 41.139,320.858 40.593 C 320.340 40.047,319.710 39.594,319.458 39.587 C 319.206 39.579,318.111 38.769,317.025 37.787 C 315.939 36.804,314.814 36.000,314.525 36.000 C 314.236 36.000,314.000 35.790,314.000 35.533 C 314.000 35.277,313.881 35.186,313.736 35.331 C 313.591 35.476,313.220 35.236,312.913 34.797 C 312.606 34.359,312.095 34.000,311.777 34.000 C 311.460 34.000,311.200 33.820,311.200 33.600 C 311.200 33.380,310.930 33.200,310.600 33.200 C 310.270 33.200,310.000 33.009,310.000 32.776 C 310.000 32.543,309.820 32.464,309.600 32.600 C 309.380 32.736,309.200 32.695,309.200 32.510 C 309.200 32.157,307.002 30.734,306.573 30.810 C 306.438 30.834,306.119 30.581,305.864 30.249 C 305.609 29.916,305.143 29.589,304.828 29.522 C 304.514 29.455,303.923 29.130,303.515 28.800 C 303.108 28.470,302.686 28.249,302.579 28.308 C 302.472 28.368,302.036 28.098,301.611 27.708 C 301.186 27.319,299.794 26.460,298.519 25.800 C 297.244 25.140,296.090 24.450,295.955 24.266 C 295.821 24.082,295.641 23.942,295.555 23.955 C 295.007 24.035,293.600 23.442,293.600 23.130 C 293.600 22.922,293.420 22.864,293.200 23.000 C 292.980 23.136,292.800 23.057,292.800 22.824 C 292.800 22.591,292.665 22.429,292.500 22.464 C 292.140 22.540,290.681 21.955,290.400 21.621 C 290.147 21.321,287.853 20.302,287.645 20.397 C 287.559 20.436,287.379 20.310,287.245 20.117 C 286.959 19.706,282.874 17.673,282.010 17.511 C 281.685 17.450,281.175 17.173,280.877 16.896 C 280.579 16.619,280.170 16.495,279.968 16.620 C 279.765 16.745,279.600 16.657,279.600 16.424 C 279.600 16.191,279.465 16.038,279.300 16.085 C 279.135 16.132,278.550 15.921,278.000 15.617 C 277.450 15.313,276.955 15.095,276.900 15.132 C 276.845 15.170,276.710 15.178,276.600 15.150 C 276.490 15.123,276.265 15.074,276.100 15.043 C 275.935 15.011,274.990 14.604,274.000 14.138 C 273.010 13.672,271.345 13.051,270.300 12.758 C 269.255 12.465,268.400 12.085,268.400 11.913 C 268.400 11.741,268.099 11.600,267.731 11.600 C 267.364 11.600,265.944 11.153,264.577 10.606 C 263.210 10.059,261.126 9.406,259.946 9.155 C 258.766 8.904,257.710 8.569,257.600 8.410 C 257.490 8.252,256.050 7.811,254.400 7.430 C 252.750 7.050,251.040 6.587,250.600 6.403 C 249.100 5.773,245.419 4.980,242.700 4.700 C 242.315 4.661,242.000 4.532,242.000 4.414 C 242.000 4.296,241.255 4.157,240.346 4.104 C 239.437 4.052,238.492 3.856,238.246 3.670 C 238.001 3.483,237.003 3.292,236.029 3.245 C 235.055 3.198,234.066 3.041,233.833 2.897 C 233.599 2.752,232.776 2.587,232.004 2.530 C 231.232 2.472,229.880 2.254,229.000 2.045 C 228.120 1.837,227.040 1.666,226.600 1.666 C 226.160 1.666,224.900 1.553,223.800 1.415 C 221.796 1.164,219.312 0.915,215.200 0.554 C 212.261 0.296,187.702 0.031,187.478 0.255 M339.328 58.644 C 339.192 58.998,338.658 59.744,338.140 60.302 C 337.623 60.860,337.200 61.486,337.200 61.692 C 337.200 61.898,336.615 62.667,335.900 63.401 C 334.121 65.228,333.600 65.898,333.600 66.360 C 333.600 66.576,333.392 66.881,333.138 67.038 C 332.837 67.224,332.773 67.128,332.953 66.762 C 333.105 66.453,332.998 66.530,332.715 66.934 C 332.432 67.337,331.795 68.147,331.300 68.734 C 330.806 69.320,330.401 70.016,330.400 70.280 C 330.400 70.543,329.770 71.240,329.000 71.827 C 328.230 72.414,327.600 73.062,327.600 73.267 C 327.600 73.471,327.105 74.102,326.500 74.669 C 325.895 75.236,325.679 75.542,326.019 75.350 C 326.359 75.157,326.179 75.403,325.619 75.895 C 325.059 76.387,324.600 76.942,324.600 77.128 C 324.600 77.314,324.060 77.969,323.400 78.583 C 322.740 79.197,322.479 79.542,322.819 79.350 C 323.159 79.157,323.024 79.367,322.519 79.815 C 322.014 80.263,321.600 80.765,321.600 80.930 C 321.600 81.094,320.790 82.074,319.800 83.108 C 318.810 84.141,317.994 85.169,317.986 85.393 C 317.978 85.617,317.508 86.340,316.942 87.000 C 316.375 87.660,316.050 87.947,316.218 87.638 C 316.421 87.265,316.368 87.172,316.062 87.362 C 315.808 87.519,315.600 87.931,315.600 88.278 C 315.600 88.625,314.285 90.549,312.677 92.554 C 311.070 94.559,309.619 96.425,309.454 96.700 C 309.214 97.098,315.504 97.200,340.376 97.200 C 362.085 97.200,371.600 97.071,371.600 96.776 C 371.600 96.543,371.439 96.452,371.243 96.574 C 371.046 96.695,370.767 96.324,370.623 95.749 C 370.479 95.174,370.144 94.461,369.880 94.166 C 368.541 92.666,368.400 92.419,368.400 91.576 C 368.400 91.343,368.220 91.264,368.000 91.400 C 367.780 91.536,367.600 91.437,367.600 91.181 C 367.600 90.925,367.060 90.033,366.400 89.200 C 365.740 88.367,365.200 87.469,365.200 87.206 C 365.200 86.529,363.758 84.775,363.453 85.080 C 363.314 85.219,363.200 85.076,363.200 84.763 C 363.200 84.449,362.761 83.718,362.224 83.139 C 361.687 82.560,361.357 81.977,361.490 81.843 C 361.624 81.709,361.513 81.600,361.243 81.600 C 360.973 81.600,360.844 81.453,360.955 81.273 C 361.066 81.093,360.816 80.700,360.400 80.400 C 359.984 80.100,359.728 79.716,359.833 79.547 C 359.937 79.378,359.657 79.045,359.211 78.806 C 358.765 78.567,358.400 78.123,358.400 77.819 C 358.400 77.515,358.265 77.207,358.100 77.133 C 357.772 76.988,355.977 74.875,354.400 72.780 C 353.850 72.049,352.927 70.952,352.349 70.343 C 351.771 69.734,351.370 69.163,351.459 69.075 C 351.547 68.986,350.813 68.191,349.826 67.307 C 348.839 66.424,348.140 65.594,348.271 65.462 C 348.403 65.330,348.036 65.042,347.455 64.821 C 346.875 64.600,346.400 64.315,346.400 64.186 C 346.400 64.058,346.608 64.081,346.862 64.238 C 347.148 64.415,347.215 64.348,347.038 64.062 C 346.881 63.808,346.493 63.600,346.176 63.600 C 345.859 63.600,345.596 63.375,345.592 63.100 C 345.572 61.893,340.844 57.866,340.128 58.447 C 339.672 58.817,339.546 58.835,339.747 58.500 C 339.912 58.225,339.941 58.000,339.811 58.000 C 339.681 58.000,339.464 58.290,339.328 58.644 M193.000 60.455 C 167.359 61.496,141.714 70.156,120.000 85.107 C 115.785 88.009,107.537 94.533,106.030 96.156 L 105.061 97.200 200.000 97.200 L 294.939 97.200 293.970 96.156 C 292.463 94.533,284.215 88.009,280.000 85.107 C 254.298 67.410,225.146 59.150,193.000 60.455 M77.915 130.700 C 68.836 146.516,60.400 172.104,60.400 183.825 L 60.400 185.200 229.757 185.200 C 377.591 185.200,399.143 185.126,399.338 184.618 C 399.461 184.298,399.454 183.623,399.324 183.118 C 399.194 182.613,399.054 181.390,399.013 180.400 C 398.972 179.410,398.888 178.510,398.825 178.400 C 398.722 178.218,398.556 176.654,398.296 173.400 C 398.243 172.740,398.048 171.965,397.862 171.677 C 397.677 171.390,397.632 170.726,397.764 170.202 C 397.895 169.678,397.850 169.154,397.663 169.039 C 397.349 168.845,397.135 167.321,397.155 165.418 C 397.159 164.989,397.011 164.449,396.825 164.218 C 396.524 163.845,396.193 162.202,395.814 159.200 C 395.744 158.650,395.522 157.750,395.321 157.200 C 395.119 156.650,394.985 155.795,395.022 155.300 C 395.060 154.805,394.916 154.400,394.703 154.400 C 394.489 154.400,394.411 154.148,394.530 153.839 C 394.648 153.531,394.632 153.165,394.494 153.028 C 394.200 152.734,393.998 151.896,393.787 150.106 C 393.703 149.395,393.429 148.427,393.177 147.956 C 392.925 147.486,392.657 146.718,392.582 146.250 C 392.346 144.782,392.187 144.216,391.865 143.700 C 391.693 143.425,391.658 143.200,391.787 143.200 C 391.915 143.200,391.733 142.643,391.381 141.963 C 391.029 141.282,390.838 140.629,390.956 140.510 C 391.075 140.392,390.928 139.947,390.630 139.522 C 390.332 139.096,390.180 138.400,390.291 137.974 C 390.402 137.548,390.298 137.200,390.059 137.200 C 389.820 137.200,389.729 136.930,389.855 136.600 C 389.982 136.270,389.906 136.000,389.686 136.000 C 389.466 136.000,389.178 135.721,389.047 135.379 C 388.912 135.027,388.978 134.863,389.200 135.000 C 389.422 135.137,389.488 134.973,389.353 134.621 C 389.222 134.279,388.934 134.000,388.714 134.000 C 388.494 134.000,388.418 133.730,388.545 133.400 C 388.671 133.070,388.590 132.800,388.364 132.800 C 388.138 132.800,388.056 132.632,388.183 132.428 C 388.309 132.223,388.218 131.935,387.979 131.787 C 387.741 131.640,387.640 131.272,387.756 130.971 C 387.871 130.670,387.704 130.161,387.383 129.840 C 387.062 129.519,386.800 128.784,386.800 128.205 C 386.800 127.605,386.628 127.259,386.400 127.400 C 386.180 127.536,386.000 127.457,386.000 127.224 C 386.000 126.926,340.440 126.800,233.077 126.800 L 80.153 126.800 77.915 130.700 M60.400 216.175 C 60.400 227.896,68.836 253.484,77.915 269.300 L 80.153 273.200 233.077 273.200 C 340.440 273.200,386.000 273.074,386.000 272.776 C 386.000 272.543,386.208 272.481,386.462 272.638 C 386.721 272.799,386.816 272.749,386.678 272.526 C 386.543 272.307,386.790 271.461,387.227 270.644 C 387.665 269.828,387.917 268.989,387.788 268.780 C 387.659 268.571,387.763 268.400,388.019 268.400 C 388.276 268.400,388.382 268.130,388.255 267.800 C 388.129 267.470,388.210 267.200,388.436 267.200 C 388.662 267.200,388.735 267.019,388.598 266.797 C 388.461 266.575,388.630 266.112,388.974 265.768 C 389.517 265.226,389.804 264.090,389.647 263.100 C 389.621 262.935,389.780 262.800,390.000 262.800 C 390.220 262.800,390.400 262.271,390.400 261.624 C 390.400 260.977,390.585 260.333,390.811 260.193 C 391.036 260.054,391.187 259.728,391.145 259.470 C 391.061 258.948,391.580 256.823,391.944 256.200 C 392.175 255.804,392.292 255.352,392.568 253.800 C 392.646 253.360,392.968 252.370,393.284 251.600 C 393.600 250.830,393.834 249.930,393.805 249.600 C 393.775 249.270,393.912 248.783,394.110 248.518 C 394.307 248.252,394.353 247.847,394.211 247.618 C 394.069 247.388,394.156 247.200,394.403 247.200 C 394.672 247.200,394.751 246.877,394.600 246.400 C 394.460 245.960,394.514 245.600,394.718 245.600 C 394.923 245.600,395.059 245.195,395.021 244.700 C 394.982 244.205,395.047 243.620,395.164 243.400 C 395.401 242.955,395.556 242.290,395.770 240.800 C 396.243 237.496,396.526 236.152,396.825 235.782 C 397.011 235.551,397.170 235.011,397.179 234.582 C 397.217 232.784,397.420 231.371,397.702 230.936 C 397.867 230.681,397.893 230.186,397.759 229.836 C 397.624 229.486,397.657 228.885,397.830 228.500 C 398.004 228.115,398.203 227.260,398.273 226.600 C 398.342 225.940,398.496 224.680,398.615 223.800 C 398.734 222.920,398.900 221.210,398.982 220.000 C 399.065 218.790,399.229 217.387,399.347 216.882 C 399.465 216.377,399.461 215.702,399.338 215.382 C 399.143 214.874,377.591 214.800,229.757 214.800 L 60.400 214.800 60.400 216.175 M106.030 303.844 C 107.537 305.467,115.785 311.991,120.000 314.893 C 168.167 348.058,231.833 348.058,280.000 314.893 C 284.215 311.991,292.463 305.467,293.970 303.844 L 294.939 302.800 200.000 302.800 L 105.061 302.800 106.030 303.844 M309.080 303.357 C 309.256 303.663,310.062 304.698,310.870 305.657 C 314.380 309.818,315.948 311.919,315.716 312.151 C 315.579 312.288,315.755 312.400,316.106 312.400 C 316.458 312.400,316.869 312.805,317.019 313.300 C 317.169 313.795,317.766 314.684,318.346 315.276 C 319.887 316.849,320.543 317.635,321.617 319.200 C 322.146 319.970,322.990 320.929,323.493 321.332 C 323.996 321.735,324.288 322.257,324.142 322.494 C 323.983 322.751,324.065 322.807,324.347 322.633 C 324.647 322.448,325.035 322.865,325.420 323.787 C 325.753 324.582,326.199 325.124,326.412 324.993 C 326.625 324.861,326.800 325.033,326.800 325.376 C 326.800 325.719,326.950 326.000,327.133 326.000 C 327.316 326.000,328.048 326.900,328.761 328.000 C 329.474 329.100,330.224 330.000,330.429 330.000 C 330.633 330.000,330.800 330.276,330.800 330.613 C 330.800 330.949,331.070 331.329,331.400 331.455 C 331.730 331.582,332.000 331.947,332.000 332.266 C 332.000 332.586,332.180 332.736,332.400 332.600 C 332.620 332.464,332.800 332.639,332.800 332.989 C 332.800 333.339,333.069 333.728,333.398 333.854 C 333.726 333.981,333.896 334.245,333.774 334.442 C 333.652 334.639,333.833 334.800,334.176 334.800 C 334.519 334.800,334.800 335.026,334.800 335.302 C 334.800 335.578,335.520 336.569,336.400 337.503 C 337.280 338.437,338.006 339.336,338.013 339.501 C 338.035 340.023,339.942 342.000,340.425 342.000 C 340.969 342.000,345.600 337.285,345.600 336.731 C 345.600 336.523,345.780 336.464,346.000 336.600 C 346.220 336.736,346.400 336.563,346.400 336.215 C 346.400 335.867,346.844 335.380,347.387 335.133 C 347.931 334.885,348.305 334.569,348.219 334.430 C 348.133 334.291,348.839 333.502,349.787 332.677 C 350.736 331.852,351.733 330.644,352.003 329.993 C 352.272 329.343,352.619 328.888,352.773 328.983 C 352.927 329.079,353.391 328.581,353.803 327.878 C 354.215 327.175,355.336 325.813,356.294 324.851 C 357.252 323.889,357.949 323.015,357.843 322.910 C 357.737 322.804,358.135 322.272,358.726 321.727 C 359.316 321.181,359.530 320.855,359.200 321.002 C 358.870 321.148,359.170 320.728,359.868 320.068 C 360.565 319.409,361.034 318.768,360.911 318.644 C 360.787 318.520,360.980 318.306,361.340 318.168 C 361.701 318.029,361.903 317.767,361.791 317.585 C 361.679 317.404,361.948 317.001,362.391 316.691 C 362.833 316.382,363.076 316.009,362.931 315.864 C 362.786 315.719,362.846 315.600,363.066 315.600 C 363.285 315.600,364.069 314.758,364.807 313.730 C 365.546 312.701,365.892 312.018,365.575 312.212 C 365.259 312.406,365.483 311.988,366.072 311.284 C 366.662 310.580,367.260 309.641,367.401 309.196 C 367.542 308.752,367.812 308.484,368.000 308.600 C 368.188 308.716,368.466 308.404,368.617 307.906 C 368.768 307.408,369.208 306.640,369.593 306.200 C 369.979 305.760,370.414 304.898,370.559 304.284 C 370.722 303.598,370.997 303.275,371.274 303.445 C 371.548 303.615,371.612 303.544,371.438 303.262 C 370.974 302.511,308.649 302.606,309.080 303.357 " stroke="none" fill="#3c7cfc" fill-rule="evenodd"></path><path id="path1" d="M290.403 21.486 C 290.405 21.659,290.855 22.008,291.404 22.263 C 291.952 22.517,292.301 22.563,292.178 22.365 C 291.852 21.837,290.399 21.118,290.403 21.486 M318.088 38.613 C 318.686 39.243,319.247 39.677,319.335 39.579 C 319.423 39.480,318.933 38.965,318.247 38.434 L 317.000 37.469 318.088 38.613 M196.105 40.287 C 196.714 40.379,197.614 40.377,198.105 40.282 C 198.597 40.187,198.100 40.111,197.000 40.114 C 195.900 40.117,195.497 40.195,196.105 40.287 M202.105 40.287 C 202.714 40.379,203.614 40.377,204.105 40.282 C 204.597 40.187,204.100 40.111,203.000 40.114 C 201.900 40.117,201.497 40.195,202.105 40.287 M185.300 40.676 C 185.685 40.776,186.315 40.776,186.700 40.676 C 187.085 40.575,186.770 40.493,186.000 40.493 C 185.230 40.493,184.915 40.575,185.300 40.676 M213.300 40.676 C 213.685 40.776,214.315 40.776,214.700 40.676 C 215.085 40.575,214.770 40.493,214.000 40.493 C 213.230 40.493,212.915 40.575,213.300 40.676 M222.200 41.590 C 222.964 41.928,225.514 42.157,225.167 41.856 C 225.075 41.776,224.190 41.604,223.200 41.473 C 221.998 41.314,221.666 41.353,222.200 41.590 M167.400 43.200 C 166.896 43.417,166.822 43.544,167.200 43.544 C 167.530 43.544,168.160 43.389,168.600 43.200 C 169.104 42.983,169.178 42.856,168.800 42.856 C 168.470 42.856,167.840 43.011,167.400 43.200 M231.400 43.200 C 231.840 43.389,232.470 43.544,232.800 43.544 C 233.178 43.544,233.104 43.417,232.600 43.200 C 232.160 43.011,231.530 42.856,231.200 42.856 C 230.822 42.856,230.896 42.983,231.400 43.200 M68.175 49.300 L 67.000 50.600 68.300 49.425 C 69.512 48.330,69.784 48.000,69.475 48.000 C 69.406 48.000,68.821 48.585,68.175 49.300 M255.946 50.216 C 256.686 50.537,257.406 50.794,257.546 50.786 C 258.066 50.757,255.776 49.628,255.200 49.630 C 254.870 49.631,255.206 49.894,255.946 50.216 M64.575 52.500 L 63.400 53.800 64.700 52.625 C 65.912 51.530,66.184 51.200,65.875 51.200 C 65.806 51.200,65.221 51.785,64.575 52.500 M132.600 54.586 C 131.940 54.888,131.670 55.143,132.000 55.153 C 132.330 55.163,133.050 54.914,133.600 54.600 C 134.873 53.872,134.180 53.862,132.600 54.586 M266.400 54.569 C 266.950 54.901,267.670 55.173,268.000 55.174 C 268.803 55.176,267.852 54.616,266.400 54.232 L 265.400 53.967 266.400 54.569 M129.100 56.229 C 127.549 57.070,127.725 57.361,129.300 56.559 C 130.808 55.793,131.075 55.594,130.567 55.616 C 130.365 55.625,129.705 55.901,129.100 56.229 M58.200 58.400 C 57.802 58.840,57.678 59.200,57.924 59.200 C 58.170 59.200,58.565 58.840,58.800 58.400 C 59.035 57.960,59.160 57.600,59.076 57.600 C 58.992 57.600,58.598 57.960,58.200 58.400 M339.834 58.257 C 339.616 58.824,339.671 58.839,340.237 58.370 C 340.802 57.900,340.995 57.953,341.646 58.757 C 342.061 59.270,342.400 59.517,342.400 59.306 C 342.400 58.090,340.237 57.205,339.834 58.257 M117.276 62.683 C 116.328 63.235,115.635 63.768,115.736 63.869 C 115.836 63.970,116.792 63.504,117.859 62.834 C 120.182 61.375,119.726 61.257,117.276 62.683 M282.099 62.808 C 283.143 63.463,284.133 63.997,284.299 63.992 C 284.464 63.988,283.746 63.448,282.701 62.792 C 281.657 62.137,280.667 61.603,280.501 61.608 C 280.336 61.612,281.054 62.152,282.099 62.808 M336.264 62.329 C 335.899 62.733,335.600 63.218,335.600 63.407 C 335.600 63.596,335.978 63.345,336.440 62.849 C 336.902 62.353,337.201 61.868,337.104 61.771 C 337.008 61.674,336.630 61.925,336.264 62.329 M288.094 66.490 C 289.282 67.500,291.600 68.947,291.600 68.679 C 291.600 68.588,290.565 67.849,289.300 67.037 C 288.035 66.225,287.492 65.979,288.094 66.490 M110.081 67.372 C 108.325 68.614,107.897 69.145,109.400 68.218 C 111.478 66.935,112.191 66.399,111.789 66.420 C 111.575 66.430,110.807 66.859,110.081 67.372 M329.467 70.900 C 329.063 71.322,328.809 71.743,328.902 71.836 C 328.995 71.929,329.399 71.643,329.800 71.200 C 330.739 70.162,330.435 69.888,329.467 70.900 M294.813 71.088 C 294.829 71.487,296.799 72.934,297.022 72.711 C 297.115 72.619,296.652 72.146,295.995 71.660 C 295.338 71.174,294.806 70.916,294.813 71.088 M103.656 72.013 C 102.416 73.046,102.975 73.035,104.291 72.000 C 104.850 71.560,105.149 71.206,104.954 71.213 C 104.759 71.221,104.175 71.581,103.656 72.013 M355.514 74.204 C 355.741 74.647,356.348 75.366,356.863 75.802 C 357.767 76.566,357.765 76.552,356.806 75.397 C 355.213 73.479,355.079 73.355,355.514 74.204 M94.678 79.413 C 94.060 79.956,93.714 80.400,93.908 80.400 C 94.102 80.400,94.683 79.950,95.200 79.400 C 96.395 78.128,96.131 78.134,94.678 79.413 M320.919 81.290 C 320.031 82.438,319.943 82.938,320.781 82.074 C 321.276 81.564,321.598 81.065,321.497 80.964 C 321.396 80.863,321.136 81.010,320.919 81.290 M362.184 83.096 C 362.743 83.699,363.214 84.464,363.232 84.796 C 363.251 85.177,363.335 85.223,363.458 84.920 C 363.670 84.400,362.067 82.000,361.509 82.000 C 361.321 82.000,361.625 82.493,362.184 83.096 M86.648 86.867 C 84.694 88.826,83.173 90.507,83.269 90.602 C 83.364 90.697,85.043 89.166,87.000 87.200 C 88.957 85.234,90.478 83.553,90.379 83.465 C 90.281 83.377,88.601 84.908,86.648 86.867 M317.302 85.700 C 316.234 87.049,315.919 88.211,316.950 87.000 C 317.883 85.903,318.235 85.200,317.849 85.200 C 317.766 85.200,317.520 85.425,317.302 85.700 M365.211 87.446 C 365.217 87.641,365.712 88.347,366.311 89.016 C 367.517 90.362,367.411 90.019,366.072 88.246 C 365.592 87.611,365.205 87.251,365.211 87.446 M79.464 94.329 C 78.495 95.399,78.651 95.770,79.671 94.820 C 80.150 94.374,80.449 93.915,80.335 93.802 C 80.221 93.688,79.830 93.925,79.464 94.329 M21.273 109.400 C 21.022 109.950,20.883 110.400,20.963 110.400 C 21.043 110.400,21.403 109.950,21.763 109.400 C 22.124 108.850,22.263 108.400,22.073 108.400 C 21.884 108.400,21.523 108.850,21.273 109.400 M68.153 108.900 C 66.776 111.236,66.686 111.435,67.387 110.600 C 68.200 109.632,68.900 108.400,68.638 108.400 C 68.533 108.400,68.315 108.625,68.153 108.900 M19.187 113.891 C 18.455 115.601,17.673 117.270,17.448 117.600 C 17.118 118.084,17.143 118.108,17.575 117.724 C 18.151 117.213,20.895 111.161,20.658 110.924 C 20.580 110.846,19.918 112.181,19.187 113.891 M58.787 124.221 C 58.304 125.003,57.987 125.721,58.083 125.817 C 58.179 125.913,58.661 125.273,59.154 124.396 C 60.266 122.418,59.984 122.284,58.787 124.221 M54.411 132.971 C 53.817 134.534,53.934 134.780,54.647 133.465 C 54.986 132.840,55.164 132.230,55.042 132.109 C 54.921 131.988,54.637 132.376,54.411 132.971 M50.126 143.100 C 49.989 143.485,49.801 143.980,49.709 144.200 C 49.616 144.420,49.824 144.251,50.170 143.824 C 50.799 143.048,50.989 142.400,50.587 142.400 C 50.471 142.400,50.263 142.715,50.126 143.100 M396.318 162.826 C 396.414 163.477,396.619 164.088,396.774 164.184 C 396.929 164.279,396.977 163.825,396.882 163.174 C 396.786 162.523,396.581 161.912,396.426 161.816 C 396.271 161.721,396.223 162.175,396.318 162.826 M41.354 177.377 C 41.232 177.694,41.203 178.279,41.289 178.677 C 41.387 179.128,41.524 178.912,41.654 178.100 C 41.871 176.738,41.730 176.396,41.354 177.377 M40.101 192.200 C 40.105 193.080,40.187 193.393,40.283 192.895 C 40.379 192.398,40.375 191.678,40.275 191.295 C 40.175 190.913,40.096 191.320,40.101 192.200 M40.120 196.000 C 40.120 197.210,40.195 197.705,40.287 197.100 C 40.378 196.495,40.378 195.505,40.287 194.900 C 40.195 194.295,40.120 194.790,40.120 196.000 M40.120 204.000 C 40.120 205.210,40.195 205.705,40.287 205.100 C 40.378 204.495,40.378 203.505,40.287 202.900 C 40.195 202.295,40.120 202.790,40.120 204.000 M40.101 207.800 C 40.105 208.680,40.187 208.993,40.283 208.495 C 40.379 207.998,40.375 207.278,40.275 206.895 C 40.175 206.513,40.096 206.920,40.101 207.800 M41.200 221.776 C 41.200 222.313,41.347 222.844,41.528 222.955 C 41.708 223.067,41.777 222.627,41.682 221.979 C 41.472 220.549,41.200 220.435,41.200 221.776 M396.623 236.100 C 396.208 237.467,396.107 238.381,396.391 238.205 C 396.565 238.098,396.787 237.468,396.885 236.805 C 397.063 235.593,396.906 235.170,396.623 236.100 M395.829 239.829 C 395.681 240.415,395.638 240.972,395.732 241.066 C 395.827 241.160,396.024 240.758,396.171 240.171 C 396.319 239.585,396.362 239.028,396.268 238.934 C 396.173 238.840,395.976 239.242,395.829 239.829 M48.848 252.800 C 48.842 253.130,49.083 253.940,49.386 254.600 C 50.093 256.145,50.103 255.426,49.400 253.600 C 49.103 252.830,48.855 252.470,48.848 252.800 M54.028 265.800 C 54.028 266.020,54.286 266.650,54.600 267.200 C 54.914 267.750,55.172 268.020,55.172 267.800 C 55.172 267.580,54.914 266.950,54.600 266.400 C 54.286 265.850,54.028 265.580,54.028 265.800 M60.362 278.729 C 60.605 279.184,61.001 279.677,61.242 279.826 C 61.556 280.020,61.554 279.862,61.238 279.271 C 60.995 278.816,60.599 278.323,60.358 278.174 C 60.044 277.980,60.046 278.138,60.362 278.729 M19.093 286.000 C 19.439 286.880,19.858 287.600,20.024 287.600 C 20.191 287.600,19.980 286.880,19.554 286.000 C 19.129 285.120,18.710 284.400,18.623 284.400 C 18.536 284.400,18.747 285.120,19.093 286.000 M20.474 289.002 C 20.725 289.553,20.984 289.950,21.049 289.884 C 21.292 289.641,20.694 288.000,20.362 288.000 C 20.172 288.000,20.223 288.451,20.474 289.002 M21.656 291.345 C 21.939 291.975,22.242 292.273,22.331 292.006 C 22.420 291.740,22.189 291.224,21.818 290.861 C 21.186 290.242,21.176 290.273,21.656 291.345 M74.800 300.000 C 75.035 300.440,75.430 300.800,75.676 300.800 C 75.922 300.800,75.798 300.440,75.400 300.000 C 75.002 299.560,74.608 299.200,74.524 299.200 C 74.440 299.200,74.565 299.560,74.800 300.000 M370.814 303.574 C 370.307 304.521,370.284 304.919,370.752 304.630 C 371.105 304.412,371.655 302.800,371.377 302.800 C 371.295 302.800,371.042 303.148,370.814 303.574 M78.800 304.742 C 78.800 304.926,79.160 305.402,79.600 305.800 C 80.040 306.198,80.400 306.356,80.400 306.151 C 80.400 305.946,80.040 305.470,79.600 305.093 C 79.160 304.716,78.800 304.558,78.800 304.742 M86.642 313.160 C 88.599 315.118,90.281 316.642,90.379 316.547 C 90.618 316.317,83.919 309.600,83.451 309.600 C 83.249 309.600,84.685 311.202,86.642 313.160 M359.579 320.222 C 359.051 320.784,358.888 321.141,359.218 321.014 C 359.739 320.815,361.034 319.200,360.673 319.200 C 360.600 319.200,360.107 319.660,359.579 320.222 M323.246 321.400 C 323.551 321.840,323.900 322.290,324.023 322.400 C 324.146 322.510,324.551 323.045,324.923 323.589 C 325.295 324.133,325.600 324.355,325.600 324.083 C 325.600 323.811,324.946 322.916,324.146 322.094 C 323.346 321.272,322.941 320.960,323.246 321.400 M41.613 322.256 C 41.631 322.744,42.757 324.176,42.961 323.971 C 43.055 323.877,42.787 323.375,42.366 322.856 C 41.945 322.336,41.606 322.066,41.613 322.256 M354.911 326.100 C 354.230 326.981,353.917 327.830,354.570 327.024 C 354.917 326.597,355.425 326.104,355.700 325.930 C 356.027 325.722,356.044 325.610,355.749 325.606 C 355.501 325.603,355.124 325.825,354.911 326.100 M327.400 326.800 C 327.798 327.240,328.192 327.600,328.276 327.600 C 328.360 327.600,328.235 327.240,328.000 326.800 C 327.765 326.360,327.370 326.000,327.124 326.000 C 326.878 326.000,327.002 326.360,327.400 326.800 M103.800 328.166 C 104.460 328.695,105.070 329.059,105.157 328.974 C 105.373 328.762,103.494 327.229,103.000 327.215 C 102.780 327.209,103.140 327.637,103.800 328.166 M108.600 331.449 C 109.528 332.366,112.000 334.015,112.000 333.717 C 112.000 333.538,111.595 333.142,111.100 332.835 C 108.627 331.304,108.231 331.084,108.600 331.449 M289.703 332.306 C 288.769 332.908,288.004 333.544,288.003 333.720 C 288.000 333.989,290.023 332.673,291.380 331.522 C 292.148 330.871,291.354 331.242,289.703 332.306 M341.987 340.816 C 341.449 341.467,340.782 342.000,340.504 342.000 C 340.227 342.000,340.000 342.186,340.000 342.414 C 340.000 342.686,340.241 342.698,340.700 342.451 C 341.620 341.955,343.388 340.055,343.151 339.817 C 343.049 339.715,342.525 340.165,341.987 340.816 M275.900 340.629 C 274.349 341.470,274.525 341.761,276.100 340.959 C 277.608 340.193,277.875 339.994,277.367 340.016 C 277.165 340.025,276.505 340.301,275.900 340.629 M57.600 340.768 C 57.600 341.177,59.158 342.575,59.374 342.360 C 59.467 342.267,59.105 341.801,58.571 341.326 C 58.037 340.850,57.600 340.599,57.600 340.768 M131.200 344.615 C 131.200 344.965,134.058 346.075,134.310 345.823 C 134.433 345.701,134.435 345.600,134.316 345.600 C 134.196 345.600,133.446 345.328,132.649 344.995 C 131.852 344.662,131.200 344.491,131.200 344.615 M266.400 345.431 L 265.400 346.033 266.400 345.772 C 266.950 345.628,267.571 345.350,267.780 345.155 C 268.391 344.584,267.514 344.759,266.400 345.431 M141.233 348.958 C 141.573 349.280,144.400 350.352,144.400 350.159 C 144.400 350.049,143.776 349.698,143.013 349.380 C 141.669 348.818,140.891 348.634,141.233 348.958 M256.900 349.396 C 256.185 349.707,255.600 350.051,255.600 350.160 C 255.600 350.352,258.428 349.278,258.767 348.958 C 259.116 348.627,258.147 348.854,256.900 349.396 M152.000 352.733 C 152.330 352.936,153.050 353.224,153.600 353.371 C 154.295 353.557,154.417 353.525,154.000 353.267 C 153.670 353.064,152.950 352.776,152.400 352.629 C 151.705 352.443,151.583 352.475,152.000 352.733 M246.600 353.014 C 245.600 353.496,245.566 353.551,246.400 353.348 C 247.533 353.071,248.807 352.421,248.200 352.430 C 247.980 352.433,247.260 352.696,246.600 353.014 M155.800 354.000 C 156.240 354.189,156.870 354.344,157.200 354.344 C 157.578 354.344,157.504 354.217,157.000 354.000 C 156.560 353.811,155.930 353.656,155.600 353.656 C 155.222 353.656,155.296 353.783,155.800 354.000 M243.000 354.000 C 242.496 354.217,242.422 354.344,242.800 354.344 C 243.130 354.344,243.760 354.189,244.200 354.000 C 244.704 353.783,244.778 353.656,244.400 353.656 C 244.070 353.656,243.440 353.811,243.000 354.000 M160.400 355.182 C 160.730 355.405,161.345 355.591,161.767 355.594 C 162.790 355.602,162.471 355.373,161.000 355.044 C 160.124 354.848,159.962 354.885,160.400 355.182 M238.400 355.200 C 237.576 355.464,237.541 355.526,238.200 355.554 C 238.640 355.573,239.270 355.413,239.600 355.200 C 240.301 354.747,239.814 354.747,238.400 355.200 M231.400 356.800 C 230.896 357.017,230.822 357.144,231.200 357.144 C 231.530 357.144,232.160 356.989,232.600 356.800 C 233.104 356.583,233.178 356.456,232.800 356.456 C 232.470 356.456,231.840 356.611,231.400 356.800 M176.600 358.400 C 177.040 358.589,177.670 358.744,178.000 358.744 C 178.378 358.744,178.304 358.617,177.800 358.400 C 177.360 358.211,176.730 358.056,176.400 358.056 C 176.022 358.056,176.096 358.183,176.600 358.400 M222.200 358.400 C 221.696 358.617,221.622 358.744,222.000 358.744 C 222.330 358.744,222.960 358.589,223.400 358.400 C 223.904 358.183,223.978 358.056,223.600 358.056 C 223.270 358.056,222.640 358.211,222.200 358.400 M184.900 359.476 C 185.285 359.576,185.915 359.576,186.300 359.476 C 186.685 359.375,186.370 359.293,185.600 359.293 C 184.830 359.293,184.515 359.375,184.900 359.476 M213.700 359.476 C 214.085 359.576,214.715 359.576,215.100 359.476 C 215.485 359.375,215.170 359.293,214.400 359.293 C 213.630 359.293,213.315 359.375,213.700 359.476 M196.105 359.887 C 196.714 359.979,197.614 359.977,198.105 359.882 C 198.597 359.787,198.100 359.711,197.000 359.714 C 195.900 359.717,195.497 359.795,196.105 359.887 M202.105 359.887 C 202.714 359.979,203.614 359.977,204.105 359.882 C 204.597 359.787,204.100 359.711,203.000 359.714 C 201.900 359.717,201.497 359.795,202.105 359.887 M84.800 363.754 C 84.800 363.839,85.295 364.227,85.900 364.616 L 87.000 365.324 86.238 364.462 C 85.564 363.699,84.800 363.323,84.800 363.754 M307.097 368.766 C 305.498 369.791,305.203 370.206,306.600 369.466 C 308.276 368.577,309.071 368.008,308.600 368.035 C 308.380 368.048,307.704 368.377,307.097 368.766 M291.511 377.760 C 289.416 379.005,289.084 379.463,291.000 378.465 C 293.005 377.420,293.919 376.803,293.400 376.844 C 293.180 376.861,292.330 377.274,291.511 377.760 M281.000 382.778 C 280.120 383.195,279.541 383.550,279.713 383.568 C 280.183 383.616,282.800 382.474,282.800 382.220 C 282.800 381.923,282.819 381.917,281.000 382.778 M277.700 384.196 C 276.985 384.507,276.400 384.856,276.400 384.972 C 276.400 385.219,278.426 384.396,278.980 383.924 C 279.505 383.476,279.214 383.538,277.700 384.196 " stroke="none" fill="#3c74fc" fill-rule="evenodd"></path></g></svg>